# xmcd
#
# Track frame offsets:
#	150
#	11549
#	25157
#	35941
#	47490
#	64109
#	76190
#	91816
#	108603
#	118082
#	126326
#	138233
#
# Disc length: 2031 seconds
#
# Revision: 0
# Processed by: cddbd v1.4PL0 Copyright (c) Steve Scherf et al.
# Submitted via: EasyCDDAExtractor 4.6.9.1
#
DISCID=9c07ed0c
DTITLE=The Masters - Laid Back
DYEAR=2002
DGENRE=Bluegrass
TTITLE0=Draggin' The Cow
TTITLE1=Wayfarin' Stranger
TTITLE2=Stoney Creek
TTITLE3=Evelina
TTITLE4=Happy Time Waltz
TTITLE5=Battle Hymn Of The Republic
TTITLE6=Jerusalem's Ridge
TTITLE7=What A Friend We Have In Jesus
TTITLE8=St. Anne's Reel
TTITLE9=Roanoke
TTITLE10=Foggy Mountain Rock
TTITLE11=Bells Of St. Mary's
EXTD=
EXTT0=
EXTT1=
EXTT2=
EXTT3=
EXTT4=
EXTT5=
EXTT6=
EXTT7=
EXTT8=
EXTT9=
EXTT10=
EXTT11=
PLAYORDER=
